<svg width="26" height="26" viewBox="0 0 26 26" fill="none" xmlns="http://www.w3.org/2000/svg">
<path d="M13 1C11.4087 2.5913 10.5147 4.74956 10.5147 7C10.5147 9.25044 11.4087 11.4087 13 13C14.5913 14.5913 16.7496 15.4853 19 15.4853C21.2504 15.4853 23.4087 14.5913 25 13C25 15.3734 24.2962 17.6935 22.9776 19.6668C21.6591 21.6402 19.7849 23.1783 17.5922 24.0866C15.3995 24.9948 12.9867 25.2324 10.6589 24.7694C8.33115 24.3064 6.19295 23.1635 4.51472 21.4853C2.83649 19.8071 1.6936 17.6689 1.23058 15.3411C0.767559 13.0133 1.0052 10.6005 1.91345 8.4078C2.8217 6.21509 4.35977 4.34094 6.33316 3.02236C8.30655 1.70379 10.6266 1 13 1Z" stroke="#EAE491" stroke-width="2" stroke-linecap="round" stroke-linejoin="round"/>
</svg>
